<svg width="1440" height="1219" viewBox="0 0 1440 1219" fill="none" xmlns="http://www.w3.org/2000/svg">
<path d="M-38.0013 304.172C-116.41 387.569 -45.3737 651.831 -17.0543 720.554C46.4483 875.468 -59.4249 857.441 -62.3864 998.058C-65.3479 1138.68 221.818 1216.62 487.178 1137.76C807.191 1042.66 687.064 993.38 1121.09 1008.76C1555.12 1024.13 1600.57 639.195 1573.12 593.768C1549.86 555.273 1600.47 388.877 1531.93 361.54C1499.63 348.658 1499.93 239.04 1388.86 262.227C1267.4 287.581 1163.79 108.289 1039.16 198.281C914.537 288.272 908.119 80.2029 730.135 139.749C552.151 199.294 347.244 131.617 244.927 185.54C48.8699 288.866 59.1873 200.801 -38.0013 304.172Z" fill="url(#paint0_linear)"/>
<defs>
<linearGradient id="paint0_linear" x1="-80.4527" y1="345.598" x2="1861.85" y2="852.308" gradientUnits="userSpaceOnUse">
<stop stop-color="#0470DC"/>
<stop offset="1" stop-color="#70DDFF"/>
</linearGradient>
</defs>
</svg>
