<svg width="1020" height="1739" viewBox="0 0 1020 1739" fill="none" xmlns="http://www.w3.org/2000/svg">
<path d="M4.25316 1C4.41983 41.6188 19.7531 129.615 79.7531 156.648C154.753 190.44 208.253 190.952 284.253 189.928C345.053 189.109 663.42 186.159 808.253 186.5C846.753 186.591 913.8 200.227 959.753 241.5C1013.75 290 1014.91 335.203 1017.25 375.5C1019.25 409.906 1017.25 586.186 1017.25 642C1017.25 769 937.253 851 788.753 852L218.753 858.93C90.7532 858.93 7.75316 910.916 1.25316 1042.5V1353C-4.24684 1462 80.7532 1537.67 170.253 1537.67C276.753 1537.67 341.753 1539.37 375.753 1537.67C446.753 1537.67 510.753 1587 514.753 1669.5C514.753 1674.01 514.753 1677.23 514.753 1738.5" stroke="url(#paint0_linear)" stroke-width="2" stroke-dasharray="10 15"/>
<defs>
<linearGradient id="paint0_linear" x1="511.805" y1="1" x2="511.805" y2="1707.5" gradientUnits="userSpaceOnUse">
<stop stop-color="white"/>
<stop offset="0.209945" stop-color="#E6E8EC"/>
<stop offset="0.834254" stop-color="#E6E8EC"/>
<stop offset="1" stop-color="white"/>
</linearGradient>
</defs>
</svg>
